<svg width="48" height="48" viewBox="0 0 48 48" fill="none" xmlns="http://www.w3.org/2000/svg">
<path fill-rule="evenodd" clip-rule="evenodd" d="M20 27C20 25.8954 19.1046 25 18 25H17V17H31V25H27.3028C26.7105 25 26.1315 25.1753 25.6387 25.5038L20 29.263V27ZM15 25C15 26.1046 15.8954 27 17 27H18V29V31.1315C18 31.9302 18.8901 32.4066 19.5547 31.9635L26.7481 27.1679C26.9123 27.0584 27.1054 27 27.3028 27H31C32.1046 27 33 26.1046 33 25V17C33 15.8954 32.1046 15 31 15H17C15.8954 15 15 15.8954 15 17V25ZM21 22C21.5523 22 22 21.5523 22 21C22 20.4477 21.5523 20 21 20C20.4477 20 20 20.4477 20 21C20 21.5523 20.4477 22 21 22ZM25 21C25 21.5523 24.5523 22 24 22C23.4477 22 23 21.5523 23 21C23 20.4477 23.4477 20 24 20C24.5523 20 25 20.4477 25 21ZM27 22C27.5523 22 28 21.5523 28 21C28 20.4477 27.5523 20 27 20C26.4477 20 26 20.4477 26 21C26 21.5523 26.4477 22 27 22Z" fill="#222222"/>
</svg>
