<svg width="18" height="16" viewBox="0 0 18 16" fill="none" xmlns="http://www.w3.org/2000/svg">
<path fill-rule="evenodd" clip-rule="evenodd" d="M5 11.1807C5 10.0761 4.10457 9.18067 3 9.18067H2V2H16V9.18067L12.2853 9.18067C11.7259 9.18067 11.1776 9.33709 10.7024 9.63227L11.7577 11.3312L10.7024 9.63227L5 13.1743V11.1807ZM4.52764 15.8221L11.7577 11.3312C11.9161 11.2328 12.0988 11.1807 12.2853 11.1807H16C17.1046 11.1807 18 10.2852 18 9.18067V2C18 0.895431 17.1046 0 16 0H2C0.895431 0 0 0.895432 0 2V9.18067C0 10.2852 0.895431 11.1807 2 11.1807H3V13.1807V14.9726C3 15.7568 3.8615 16.2359 4.52764 15.8221ZM6.00006 6.52209C6.55235 6.52209 7.00006 6.10494 7.00006 5.59037C7.00006 5.07579 6.55235 4.65864 6.00006 4.65864C5.44778 4.65864 5.00006 5.07579 5.00006 5.59037C5.00006 6.10494 5.44778 6.52209 6.00006 6.52209ZM10 5.59037C10 6.10494 9.55229 6.52209 9.00001 6.52209C8.44772 6.52209 8.00001 6.10494 8.00001 5.59037C8.00001 5.07579 8.44772 4.65864 9.00001 4.65864C9.55229 4.65864 10 5.07579 10 5.59037ZM12 6.52209C12.5523 6.52209 13 6.10494 13 5.59037C13 5.07579 12.5523 4.65864 12 4.65864C11.4477 4.65864 11 5.07579 11 5.59037C11 6.10494 11.4477 6.52209 12 6.52209Z" fill="#4BA7C8"/>
</svg>
