<svg width="18" height="19" viewBox="0 0 18 19" fill="none" xmlns="http://www.w3.org/2000/svg">
<path fill-rule="evenodd" clip-rule="evenodd" d="M9.48104 0.204568C9.12305 -0.0681894 8.62695 -0.0681894 8.26896 0.204568L0.787914 5.90441C0.291418 6.28269 0 6.87109 0 7.49527V17C0 18.212 1.06538 19 2.125 19H5.875H11.875H15.625C16.6846 19 17.75 18.212 17.75 17V7.49527C17.75 6.87109 17.4586 6.28269 16.9621 5.90441L9.48104 0.204568ZM12.875 17H15.625C15.6886 17 15.7301 16.9795 15.75 16.9647V7.49527L8.875 2.25718L2 7.49527L1.39396 6.69984L2 7.49527V16.9647C2.01992 16.9795 2.06142 17 2.125 17H4.875V11C4.875 10.4477 5.32272 10 5.875 10H11.875C12.4273 10 12.875 10.4477 12.875 11V17ZM6.875 17H10.875V12H6.875V17Z" fill="#46ACBF"/>
</svg>
